<svg width="6" height="10" viewBox="0 0 6 10" fill="none" xmlns="http://www.w3.org/2000/svg">
<path fill-rule="evenodd" clip-rule="evenodd" d="M2.99961 9.375C2.91673 9.375 2.83724 9.34208 2.77863 9.28347C2.72003 9.22487 2.68711 9.14538 2.68711 9.0625L2.68711 1.69187L0.720856 3.65875C0.662177 3.71743 0.582591 3.75039 0.499606 3.75039C0.416621 3.75039 0.337035 3.71743 0.278356 3.65875C0.219677 3.60007 0.186711 3.52048 0.186711 3.4375C0.186711 3.35451 0.219677 3.27493 0.278356 3.21625L2.77836 0.716249C2.80738 0.687148 2.84187 0.664058 2.87984 0.648305C2.9178 0.632551 2.9585 0.624441 2.99961 0.624441C3.04071 0.624441 3.08141 0.632551 3.11938 0.648305C3.15734 0.664058 3.19183 0.687148 3.22086 0.716249L5.72086 3.21625C5.77953 3.27493 5.8125 3.35452 5.8125 3.4375C5.8125 3.52048 5.77953 3.60007 5.72086 3.65875C5.66218 3.71743 5.58259 3.75039 5.49961 3.75039C5.41662 3.75039 5.33703 3.71743 5.27836 3.65875L3.31211 1.69187L3.31211 9.0625C3.31211 9.14538 3.27918 9.22487 3.22058 9.28347C3.16197 9.34208 3.08249 9.375 2.99961 9.375Z" fill="url(#paint0_linear_1_306)"/>
<defs>
<linearGradient id="paint0_linear_1_306" x1="2.99961" y1="9.375" x2="2.99961" y2="0.624441" gradientUnits="userSpaceOnUse">
<stop stop-color="#5A8FFF"/>
<stop offset="1" stop-color="#003094"/>
</linearGradient>
</defs>
</svg>
