<svg width="8" height="14" viewBox="0 0 8 14" fill="none" xmlns="http://www.w3.org/2000/svg">
<path fill-rule="evenodd" clip-rule="evenodd" d="M0.645961 0.645978C0.599398 0.692424 0.562455 0.7476 0.537249 0.808345C0.512042 0.86909 0.499067 0.934211 0.499067 0.999978C0.499067 1.06575 0.512042 1.13087 0.537249 1.19161C0.562455 1.25236 0.599398 1.30753 0.645961 1.35398L6.29296 6.99998L0.645961 12.646C0.552074 12.7399 0.49933 12.8672 0.49933 13C0.49933 13.1328 0.552074 13.2601 0.645961 13.354C0.739848 13.4479 0.867185 13.5006 0.999961 13.5006C1.13274 13.5006 1.26007 13.4479 1.35396 13.354L7.35396 7.35398C7.40052 7.30753 7.43747 7.25236 7.46267 7.19161C7.48788 7.13087 7.50085 7.06575 7.50085 6.99998C7.50085 6.93421 7.48788 6.86909 7.46267 6.80834C7.43747 6.7476 7.40052 6.69242 7.35396 6.64598L1.35396 0.645978C1.30752 0.599415 1.25234 0.562472 1.19159 0.537266C1.13085 0.512059 1.06573 0.499084 0.999961 0.499084C0.934194 0.499084 0.869073 0.512059 0.808328 0.537266C0.747582 0.562472 0.692407 0.599415 0.645961 0.645978Z" fill="url(#paint0_linear_1_59)"/>
<defs>
<linearGradient id="paint0_linear_1_59" x1="3.99996" y1="0.499084" x2="3.99996" y2="13.5006" gradientUnits="userSpaceOnUse">
<stop stop-color="#5A8FFF"/>
<stop offset="1" stop-color="#003094"/>
</linearGradient>
</defs>
</svg>
