<svg width="12" height="9" viewBox="0 0 12 9" fill="none" xmlns="http://www.w3.org/2000/svg">
<path d="M11.854 0.646001C11.9006 0.692447 11.9375 0.747622 11.9627 0.808367C11.9879 0.869113 12.0009 0.934234 12.0009 1C12.0009 1.06577 11.9879 1.13089 11.9627 1.19163C11.9375 1.25238 11.9006 1.30756 11.854 1.354L4.85402 8.354C4.80758 8.40056 4.7524 8.43751 4.69166 8.46271C4.63091 8.48792 4.56579 8.50089 4.50002 8.50089C4.43425 8.50089 4.36913 8.48792 4.30839 8.46271C4.24764 8.43751 4.19247 8.40056 4.14602 8.354L0.646021 4.854C0.552134 4.76011 0.49939 4.63278 0.49939 4.5C0.49939 4.36723 0.552134 4.23989 0.646021 4.146C0.739908 4.05211 0.867245 3.99937 1.00002 3.99937C1.1328 3.99937 1.26013 4.05211 1.35402 4.146L4.50002 7.293L11.146 0.646001C11.1925 0.599438 11.2476 0.562495 11.3084 0.537289C11.3691 0.512082 11.4343 0.499107 11.5 0.499107C11.5658 0.499107 11.6309 0.512082 11.6917 0.537289C11.7524 0.562495 11.8076 0.599438 11.854 0.646001Z" fill="url(#paint0_linear_1_283)"/>
<defs>
<linearGradient id="paint0_linear_1_283" x1="6.25015" y1="0.499107" x2="6.25015" y2="8.50089" gradientUnits="userSpaceOnUse">
<stop stop-color="#00DC4B"/>
<stop offset="1" stop-color="#009231"/>
</linearGradient>
</defs>
</svg>
