<svg width="8" height="8" viewBox="0 0 8 8" fill="none" xmlns="http://www.w3.org/2000/svg">
<path d="M0.226779 0.226748C0.27903 0.174364 0.341103 0.132804 0.409441 0.104446C0.477779 0.0760891 0.551041 0.0614929 0.625029 0.0614929C0.699017 0.0614929 0.772278 0.0760891 0.840617 0.104446C0.908955 0.132804 0.971027 0.174364 1.02328 0.226748L4.00003 3.20462L6.97678 0.226748C7.02908 0.174449 7.09117 0.132963 7.1595 0.104659C7.22783 0.0763553 7.30107 0.0617874 7.37503 0.0617874C7.44899 0.0617874 7.52223 0.0763553 7.59056 0.104659C7.65889 0.132963 7.72098 0.174449 7.77328 0.226748C7.82558 0.279047 7.86706 0.341135 7.89537 0.409467C7.92367 0.477798 7.93824 0.551036 7.93824 0.624998C7.93824 0.69896 7.92367 0.772198 7.89537 0.84053C7.86706 0.908862 7.82558 0.970949 7.77328 1.02325L4.7954 4L7.77328 6.97675C7.82558 7.02905 7.86706 7.09113 7.89537 7.15947C7.92367 7.2278 7.93824 7.30104 7.93824 7.375C7.93824 7.44896 7.92367 7.5222 7.89537 7.59053C7.86706 7.65886 7.82558 7.72095 7.77328 7.77325C7.72098 7.82555 7.65889 7.86703 7.59056 7.89534C7.52223 7.92364 7.44899 7.93821 7.37503 7.93821C7.30107 7.93821 7.22783 7.92364 7.1595 7.89534C7.09117 7.86703 7.02908 7.82555 6.97678 7.77325L4.00003 4.79537L1.02328 7.77325C0.97098 7.82555 0.908892 7.86703 0.84056 7.89534C0.772228 7.92364 0.698991 7.93821 0.625029 7.93821C0.551067 7.93821 0.477829 7.92364 0.409497 7.89534C0.341165 7.86703 0.279078 7.82555 0.226779 7.77325C0.17448 7.72095 0.132994 7.65886 0.10469 7.59053C0.0763859 7.5222 0.0618179 7.44896 0.0618179 7.375C0.0618179 7.30104 0.0763859 7.2278 0.10469 7.15947C0.132994 7.09113 0.17448 7.02905 0.226779 6.97675L3.20465 4L0.226779 1.02325C0.174395 0.970997 0.132834 0.908924 0.104477 0.840586C0.0761196 0.772248 0.0615234 0.698986 0.0615234 0.624998C0.0615234 0.55101 0.0761196 0.477749 0.104477 0.40941C0.132834 0.341072 0.174395 0.278999 0.226779 0.226748Z" fill="url(#paint0_linear_1_266)"/>
<defs>
<linearGradient id="paint0_linear_1_266" x1="3.99988" y1="0.0614929" x2="3.99988" y2="7.93821" gradientUnits="userSpaceOnUse">
<stop stop-color="#E70000"/>
<stop offset="1" stop-color="#B70000"/>
</linearGradient>
</defs>
</svg>
