<svg width="16" height="16" viewBox="0 0 16 16" fill="none" xmlns="http://www.w3.org/2000/svg">
<path d="M14.0165 10.5C14.0165 10.3674 13.9667 10.2402 13.8779 10.1464C13.7892 10.0527 13.6688 10 13.5433 10H10.7038C10.5783 10 10.4579 10.0527 10.3692 10.1464C10.2804 10.2402 10.2306 10.3674 10.2306 10.5C10.2306 10.6326 10.2804 10.7598 10.3692 10.8536C10.4579 10.9473 10.5783 11 10.7038 11H13.5433C13.6688 11 13.7892 10.9473 13.8779 10.8536C13.9667 10.7598 14.0165 10.6326 14.0165 10.5ZM14.0165 7.5C14.0165 7.36739 13.9667 7.24021 13.8779 7.14645C13.7892 7.05268 13.6688 7 13.5433 7H6.91781C6.7923 7 6.67192 7.05268 6.58317 7.14645C6.49442 7.24021 6.44456 7.36739 6.44456 7.5C6.44456 7.63261 6.49442 7.75979 6.58317 7.85355C6.67192 7.94732 6.7923 8 6.91781 8H13.5433C13.6688 8 13.7892 7.94732 13.8779 7.85355C13.9667 7.75979 14.0165 7.63261 14.0165 7.5ZM14.0165 4.5C14.0165 4.36739 13.9667 4.24021 13.8779 4.14645C13.7892 4.05268 13.6688 4 13.5433 4H3.13182C3.0063 4 2.88593 4.05268 2.79718 4.14645C2.70843 4.24021 2.65857 4.36739 2.65857 4.5C2.65857 4.63261 2.70843 4.75979 2.79718 4.85355C2.88593 4.94732 3.0063 5 3.13182 5H13.5433C13.6688 5 13.7892 4.94732 13.8779 4.85355C13.9667 4.75979 14.0165 4.63261 14.0165 4.5Z" fill="#B4B4B4"/>
</svg>
