<svg width="12" height="12" viewBox="0 0 12 12" fill="none" xmlns="http://www.w3.org/2000/svg">
<path d="M6.98527 0.586625C7.03865 0.586529 7.09153 0.596957 7.14089 0.617312C7.19024 0.637666 7.2351 0.667548 7.27289 0.70525L11.2948 4.72712C11.3709 4.80331 11.4137 4.90662 11.4137 5.01434C11.4137 5.12207 11.3709 5.22538 11.2948 5.30156C10.9048 5.69156 10.4238 5.77931 10.0736 5.77931C9.92977 5.77931 9.80139 5.76469 9.69983 5.74762L7.15346 8.294C7.22049 8.56408 7.26399 8.83947 7.28346 9.11706C7.32083 9.68744 7.25746 10.4877 6.69846 11.0467C6.62227 11.1229 6.51896 11.1657 6.41124 11.1657C6.30351 11.1657 6.2002 11.1229 6.12402 11.0467L3.82546 8.749L1.24008 11.3344C1.08164 11.4928 0.249644 12.0672 0.0912064 11.9088C-0.0672311 11.7504 0.507206 10.9176 0.665644 10.7599L3.25102 8.17456L0.953269 5.876C0.877109 5.79982 0.834324 5.6965 0.834324 5.58878C0.834324 5.48106 0.877109 5.37775 0.953269 5.30156C1.51227 4.74256 2.31258 4.67837 2.88296 4.71656C3.16055 4.73601 3.43594 4.77951 3.70602 4.84656L6.25239 2.301C6.23114 2.17727 6.22027 2.05198 6.21989 1.92644C6.21989 1.57706 6.30764 1.09606 6.69846 0.70525C6.77459 0.629306 6.87773 0.586648 6.98527 0.586625ZM7.08439 2.30262V2.301V2.30262ZM7.08439 2.301V2.30262C7.10786 2.3741 7.11101 2.45069 7.09351 2.52385C7.07601 2.59701 7.03854 2.66388 6.98527 2.717L4.11308 5.58837C4.05971 5.64151 3.99263 5.67877 3.91931 5.69599C3.84599 5.71321 3.76934 5.7097 3.69789 5.68587H3.69627L3.68489 5.68262C3.6076 5.65947 3.52955 5.63887 3.45089 5.62087C3.2465 5.5732 3.03867 5.54168 2.82933 5.52662C2.48646 5.50387 2.15008 5.53312 1.87464 5.6485L6.35152 10.1246C6.46608 9.84831 6.49533 9.51275 6.47258 9.16988C6.45188 8.87959 6.39957 8.59243 6.31658 8.3135L6.31333 8.30294V8.30212C6.28934 8.23057 6.28575 8.15375 6.30297 8.08027C6.3202 8.00679 6.35754 7.93957 6.41083 7.88613L9.28383 5.01394C9.33916 4.95828 9.40942 4.91983 9.48613 4.90325C9.56284 4.88667 9.64271 4.89266 9.71608 4.9205L9.79408 4.93837C9.86477 4.95219 9.96308 4.966 10.0736 4.966C10.1662 4.966 10.2605 4.95706 10.3523 4.9335L7.06571 1.64775C7.04214 1.73956 7.03321 1.83462 7.03321 1.92644C7.0336 2.05269 7.05054 2.17834 7.08358 2.30019L7.08439 2.301Z" fill="url(#paint0_linear_1_249)"/>
<defs>
<linearGradient id="paint0_linear_1_249" x1="5.73878" y1="0.586624" x2="5.73878" y2="11.9362" gradientUnits="userSpaceOnUse">
<stop stop-color="#BD00FF"/>
<stop offset="1" stop-color="#74009C"/>
</linearGradient>
</defs>
</svg>
