<svg width="12" height="13" viewBox="0 0 12 13" fill="none" xmlns="http://www.w3.org/2000/svg">
<g clip-path="url(#clip0_1_387)">
<path d="M0 2C0 1.60218 0.158035 1.22064 0.43934 0.93934C0.720644 0.658035 1.10218 0.5 1.5 0.5L10.5 0.5C10.8978 0.5 11.2794 0.658035 11.5607 0.93934C11.842 1.22064 12 1.60218 12 2V11C12 11.3978 11.842 11.7794 11.5607 12.0607C11.2794 12.342 10.8978 12.5 10.5 12.5H1.5C1.10218 12.5 0.720644 12.342 0.43934 12.0607C0.158035 11.7794 0 11.3978 0 11V2ZM11.25 3.5H8.25V5.75H11.25V3.5ZM11.25 6.5H8.25V8.75H11.25V6.5ZM11.25 9.5H8.25V11.75H10.5C10.6989 11.75 10.8897 11.671 11.0303 11.5303C11.171 11.3897 11.25 11.1989 11.25 11V9.5ZM7.5 11.75V9.5H4.5V11.75H7.5ZM3.75 11.75V9.5H0.75V11C0.75 11.1989 0.829018 11.3897 0.96967 11.5303C1.11032 11.671 1.30109 11.75 1.5 11.75H3.75ZM0.75 8.75H3.75V6.5H0.75V8.75ZM0.75 5.75H3.75V3.5H0.75V5.75ZM4.5 3.5V5.75H7.5V3.5H4.5ZM7.5 6.5H4.5V8.75H7.5V6.5Z" fill="#0038AE" fill-opacity="0.3"/>
</g>
<defs>
<clipPath id="clip0_1_387">
<rect width="12" height="12" fill="white" transform="translate(0 0.5)"/>
</clipPath>
</defs>
</svg>
