<svg width="13" height="16" viewBox="0 0 13 16" fill="none" xmlns="http://www.w3.org/2000/svg">
<path d="M0.875 2.375V15.0312C0.874941 15.1126 0.896079 15.1927 0.936336 15.2634C0.976592 15.3342 1.03458 15.3932 1.10459 15.4347C1.17459 15.4763 1.25421 15.4989 1.3356 15.5003C1.41699 15.5017 1.49734 15.4819 1.56875 15.4428L6.5 12.7522L11.4313 15.4428C11.5027 15.4819 11.583 15.5017 11.6644 15.5003C11.7458 15.4989 11.8254 15.4763 11.8954 15.4347C11.9654 15.3932 12.0234 15.3342 12.0637 15.2634C12.1039 15.1927 12.1251 15.1126 12.125 15.0312V2.375C12.125 1.87772 11.9275 1.40081 11.5758 1.04917C11.2242 0.697544 10.7473 0.5 10.25 0.5H2.75C2.25272 0.5 1.77581 0.697544 1.42417 1.04917C1.07254 1.40081 0.875 1.87772 0.875 2.375Z" fill="url(#paint0_linear_1_333)"/>
<defs>
<linearGradient id="paint0_linear_1_333" x1="6.5" y1="0.5" x2="6.5" y2="15.5003" gradientUnits="userSpaceOnUse">
<stop stop-color="#5A8FFF"/>
<stop offset="1" stop-color="#003094"/>
</linearGradient>
</defs>
</svg>
